<?xml version="1.0" encoding="utf-8"?>
<!-- Generator: Adobe Illustrator 25.2.0, SVG Export Plug-In . SVG Version: 6.00 Build 0)  -->
<svg version="1.1" id="Capa_1" xmlns="http://www.w3.org/2000/svg" xmlns:xlink="http://www.w3.org/1999/xlink" x="0px" y="0px"
	 viewBox="0 0 846 200" style="enable-background:new 0 0 846 200;" xml:space="preserve">
<style type="text/css">
	.st0{fill:#B7144E;}
	.st1{fill:#FFFFFF;}
	.st2{enable-background:new    ;}
</style>
<rect y="0" class="st0" width="846" height="200"/>
<g>
	<rect x="104.5" y="20.7" class="st1" width="17.6" height="78.5"/>
	<rect x="104.5" y="100.9" class="st1" width="70.5" height="17.6"/>
	<polygon class="st1" points="162.4,20.7 123.9,59.1 123.9,84.4 175,33.3 175,20.7 	"/>
	<polygon class="st1" points="153.6,57.2 141,69.8 170.3,99.1 175,99.1 175,96.2 175,78.5 	"/>
	<polygon class="st1" points="137.3,161.7 119.7,179.3 175,179.3 175,161.7 	"/>
	<polygon class="st1" points="175,120.3 150.9,120.3 109.5,161.7 104.5,166.7 104.5,179.3 117.1,179.3 117.2,179.3 134.8,161.7 
		134.8,161.7 175,121.5 	"/>
</g>
<g>
	<g class="st2">
		<path class="st1" d="M279.6,100.3V51h10.3c7.8,0,13.2,0.4,16.3,1.1c3.2,0.7,6,1.9,8.4,3.6c3.1,2.2,5.5,4.9,7.1,8.3
			c1.6,3.4,2.4,7.3,2.4,11.6s-0.8,8.2-2.4,11.6c-1.6,3.4-4,6.2-7.1,8.3c-2.5,1.7-5.2,2.9-8.1,3.5c-3,0.7-7.7,1.1-14.2,1.1h-2.3
			H279.6z M292.9,89.3h2.3c5.3,0,9.1-1.1,11.5-3.3c2.4-2.2,3.6-5.6,3.6-10.3c0-4.7-1.2-8.1-3.6-10.3c-2.4-2.2-6.3-3.3-11.5-3.3h-2.3
			V89.3z"/>
	</g>
	<g class="st2">
		<path class="st1" d="M327.2,100.3V51h30.2v10.8h-17.1v8.5h16.1V81h-16.1v8.3h17.1v11H327.2z"/>
	</g>
	<g class="st2">
		<path class="st1" d="M380.6,100.3L359.9,51h14.3l9.9,27.6c0.2,0.6,0.3,1.3,0.5,2.1c0.3,1.2,0.6,2.7,1.1,4.5c0.3-1.3,0.6-2.7,1-4
			c0.3-1.3,0.5-2.2,0.7-2.6l9.8-27.6h14.3l-20.7,49.3H380.6z"/>
		<path class="st1" d="M414.6,100.3V51h30.2v10.8h-17.1v8.5h16.1V81h-16.1v8.3h17.1v11H414.6z"/>
	</g>
	<g class="st2">
		<path class="st1" d="M448.5,100.3V51H462v37.8h16.7v11.5H448.5z"/>
	</g>
	<g class="st2">
		<path class="st1" d="M529,75.8c0,3.6-0.6,6.9-1.9,10c-1.3,3-3.2,5.8-5.7,8.3c-2.5,2.4-5.4,4.3-8.6,5.6c-3.4,1.3-6.7,2-10.1,2
			c-3.4,0-6.7-0.7-10.1-2c-3.3-1.3-6.1-3.2-8.5-5.6c-2.4-2.3-4.3-5.1-5.7-8.3c-1.3-3.2-2-6.5-2-9.9c0-3.4,0.7-6.7,2-9.9
			c1.4-3.3,3.3-6,5.7-8.3c2.5-2.5,5.3-4.4,8.5-5.7c3.1-1.3,6.5-1.9,10.1-1.9c3.6,0,6.9,0.6,10.1,1.9s6,3.2,8.5,5.6
			c2.5,2.5,4.4,5.3,5.7,8.3C528.3,68.9,529,72.2,529,75.8z M502.6,90.2c3.7,0,6.8-1.4,9.3-4.1c1.2-1.4,2.1-2.9,2.7-4.6
			s0.9-3.6,0.9-5.7c0-4.1-1.2-7.6-3.7-10.3c-2.5-2.8-5.6-4.1-9.2-4.1c-3.7,0-6.8,1.4-9.3,4.1c-2.4,2.8-3.6,6.2-3.6,10.3
			c0,4.3,1.2,7.8,3.6,10.4C495.8,88.9,498.9,90.2,502.6,90.2z"/>
		<path class="st1" d="M549,100.3h-12.6V51h14.1c5.5,0,9.3,0.3,11.6,0.8c2.2,0.6,4.1,1.5,5.6,2.8c1.8,1.5,3.2,3.4,4.1,5.6
			c1,2.3,1.4,4.8,1.4,7.6c0,3-0.5,5.5-1.4,7.7c-0.9,2.2-2.2,4.1-4.1,5.5c-1.4,1.1-3,1.9-4.9,2.3c-1.7,0.5-4.7,0.7-9,0.7h-2.3H549
			V100.3z M549,73.2h2.6c3.2,0,5.4-0.5,6.8-1.4c1.3-0.9,1.9-2.3,1.9-4.5c0-2-0.6-3.5-1.9-4.4c-1.2-0.9-3.5-1.3-6.7-1.3H549V73.2z"/>
		<path class="st1" d="M635.7,100.3h-12.6L620.2,79c-0.2-1.9-0.4-3.6-0.5-5c-0.2-1.4-0.3-3.4-0.5-6c-0.4,2.3-1,4.9-1.9,7.8
			c-0.2,0.6-0.3,1-0.4,1.4l-6.7,23.1h-9l-6.7-23.1c-0.1-0.4-0.2-0.9-0.4-1.4c-0.9-3-1.6-5.6-1.9-7.8c-0.2,2.5-0.3,4.3-0.5,5.5
			c-0.1,0.6-0.2,1.5-0.3,2.8s-0.2,2.1-0.3,2.8l-2.9,21.3h-12.5l7.6-49.3h13.3l7.4,25.4c0.1,0.5,0.2,0.8,0.3,0.9
			c0.7,2.1,1.1,4,1.3,5.8c0-0.6,0.2-1.6,0.5-3c0.1-0.3,0.4-1.6,1-3.8l7.5-25.4h13.3L635.7,100.3z"/>
		<path class="st1" d="M642,100.3V51h30.2v10.8h-17.1v8.5h16.1V81h-16.1v8.3h17.1v11H642z"/>
		<path class="st1" d="M680.1,100.3V51h13l18.6,25.4c0.5,0.7,1.1,1.7,1.8,3.1c0.9,1.8,1.8,3.6,2.7,5.6c-0.3-2.6-0.5-4.4-0.6-5.4
			c-0.1-1.6-0.2-3-0.2-4.3V51h12.9v49.3h-12.9l-18.6-25.5c-0.3-0.4-0.9-1.4-1.8-3.2c-0.8-1.4-1.7-3.3-2.7-5.5
			c0.2,1.8,0.4,3.6,0.6,5.5c0.1,2.1,0.1,3.5,0.1,4.3v24.3H680.1z"/>
		<path class="st1" d="M745,100.3V62.7h-11V51h35.5v11.6h-11v37.6H745z"/>
	</g>
	<g class="st2">
		<path class="st1" d="M406.3,149l-4.8-5.7c-1.8,2.2-3.7,3.8-5.7,4.8c-1.9,1-4,1.6-6.1,1.6c-3.3,0-6-1-8.2-3c-2.1-2-3.2-4.6-3.2-7.7
			c0-2.2,0.8-4.4,2.3-6.3c1.5-2,3.9-4,7.3-6.1l-1.5-2c-1.2-1.6-2-2.9-2.4-3.9s-0.6-2.1-0.6-3.2c0-2,0.8-3.6,2.4-4.9
			c1.6-1.3,3.6-2,6.1-2c2.2,0,4.1,0.7,5.5,2s2.1,3.1,2.1,5.2c0,1.7-0.6,3.3-1.7,4.8c-1.1,1.5-2.9,3-5.5,4.6l9.5,11.8
			c0.8-1,1.6-2,2.4-3.1c0.8-1.1,1.5-2.2,2.2-3.3l2.3,1.3c-0.9,1.4-1.7,2.7-2.6,3.9c-0.9,1.2-1.7,2.4-2.7,3.4l6.6,7.8H406.3z
			 M399.7,141l-10.1-12.3l-1.7,1.2c-2.6,1.9-4.3,3.4-5,4.6c-0.8,1.2-1.1,2.6-1.1,4.2c0,2.3,0.8,4.2,2.4,5.7s3.5,2.3,5.8,2.3
			c1.5,0,3.1-0.5,4.7-1.5C396.2,144.4,397.9,143,399.7,141z M390.6,125l1.7-1.2c1.4-0.9,2.4-1.9,3.1-3c0.7-1,1-2.1,1-3.2
			c0-1.2-0.5-2.3-1.4-3.2c-0.9-0.9-2-1.3-3.4-1.3c-1.5,0-2.7,0.4-3.6,1.2c-0.9,0.8-1.4,1.9-1.4,3.2c0,0.7,0.2,1.4,0.5,2.2
			s0.8,1.5,1.3,2.3L390.6,125z"/>
	</g>
	<g class="st2">
		<path class="st1" d="M441.9,149v-38.6h6c5.4,0,9.2,0.3,11.4,0.8c2.2,0.5,4.2,1.4,5.8,2.7c2.1,1.7,3.8,3.9,4.9,6.6
			c1.1,2.7,1.7,5.8,1.7,9.2s-0.6,6.5-1.7,9.2c-1.1,2.7-2.7,4.9-4.9,6.5c-1.7,1.3-3.6,2.2-5.7,2.7c-2.1,0.5-5.6,0.8-10.4,0.8h-1.2
			H441.9z M445.4,145.9h4.9c4,0,6.8-0.2,8.5-0.7c1.7-0.4,3.1-1.2,4.2-2.3c1.6-1.5,2.8-3.4,3.7-5.6c0.8-2.2,1.2-4.8,1.2-7.7
			c0-3-0.4-5.6-1.3-7.8s-2.1-4.1-3.7-5.5c-1.2-1.1-2.7-1.9-4.5-2.3c-1.8-0.5-4.9-0.7-9.3-0.7h-0.7h-3.1V145.9z"/>
		<path class="st1" d="M485.5,149v-38.6h19.1v3.3H489v12.1h15.6v3.3H489v16.6h15.6v3.3H485.5z"/>
		<path class="st1" d="M516.3,142.5l3-1.6c0.6,1.9,1.5,3.4,2.9,4.4c1.4,1,3,1.6,5,1.6c2.4,0,4.4-0.7,5.7-2.2s2.1-3.4,2.1-6
			c0-1.9-0.5-3.4-1.4-4.6s-2.9-2.7-5.9-4.3c-3.9-2.1-6.5-3.9-7.8-5.4s-1.9-3.4-1.9-5.6c0-2.7,0.9-5,2.8-6.7c1.9-1.7,4.3-2.6,7.2-2.6
			c1.9,0,3.6,0.4,5,1.2c1.4,0.8,2.6,2,3.5,3.7l-2.7,1.6c-0.6-1.1-1.4-2-2.4-2.5s-2.2-0.9-3.7-0.9c-1.9,0-3.4,0.6-4.5,1.7
			c-1.1,1.1-1.7,2.6-1.7,4.5c0,2.7,2.2,5.2,6.7,7.6c0.8,0.4,1.4,0.7,1.8,1c3.3,1.8,5.5,3.5,6.6,5.1c1.1,1.6,1.7,3.7,1.7,6.3
			c0,3.5-1,6.2-3,8.2c-2,2-4.8,3-8.3,3c-2.5,0-4.7-0.6-6.5-1.9C518.7,146.8,517.3,145,516.3,142.5z"/>
		<path class="st1" d="M552.1,149v-38.6h3.5V149H552.1z"/>
		<path class="st1" d="M602.9,120.1c-1.6-2.4-3.5-4.3-5.8-5.5s-4.9-1.9-7.7-1.9c-4.8,0-8.7,1.6-11.7,4.9s-4.5,7.4-4.5,12.6
			c0,2.3,0.4,4.5,1.2,6.5c0.8,2,2,3.8,3.5,5.4c1.5,1.6,3.3,2.7,5.2,3.5c1.9,0.8,4,1.2,6.3,1.2c4.3,0,7.8-1.3,10.6-3.8
			c2.7-2.5,4.1-5.9,4.2-10h-13.3v-3H608v0.4c0,6.2-1.7,11-5,14.4s-8,5.2-13.9,5.2c-5.9,0-10.6-1.9-14.2-5.6s-5.4-8.6-5.4-14.7
			c0-2.8,0.5-5.4,1.4-7.9s2.2-4.6,4-6.4c1.9-2,4-3.5,6.3-4.5c2.3-1,5-1.5,7.8-1.5c3.9,0,7.3,0.7,10.1,2.1c2.8,1.4,4.9,3.5,6.5,6.2
			L602.9,120.1z"/>
		<path class="st1" d="M621.3,149v-40.2l27.3,32.3v-30.7h3.3v39.7l-27.3-32.4V149H621.3z"/>
	</g>
</g>
</svg>
